<?xml version="1.0" encoding="UTF-8" standalone="no"?>
<!-- Created with Inkscape (http://www.inkscape.org/) -->

<svg
   xmlns:dc="http://purl.org/dc/elements/1.1/"
   xmlns:cc="http://creativecommons.org/ns#"
   xmlns:rdf="http://www.w3.org/1999/02/22-rdf-syntax-ns#"
   xmlns:svg="http://www.w3.org/2000/svg"
   xmlns="http://www.w3.org/2000/svg"
   xmlns:sodipodi="http://sodipodi.sourceforge.net/DTD/sodipodi-0.dtd"
   xmlns:inkscape="http://www.inkscape.org/namespaces/inkscape"
   width="1052.3622"
   height="744.09448"
   id="svg2"
   version="1.1"
   inkscape:version="0.92.3 (2405546, 2018-03-11)"
   sodipodi:docname="logo-rev.svg"
   inkscape:export-filename="G:\My Drive\Roma\Images\logo-300x132.png"
   inkscape:export-xdpi="28.099148"
   inkscape:export-ydpi="28.099148">
  <defs
     id="defs4" />
  <sodipodi:namedview
     id="base"
     pagecolor="#ffffff"
     bordercolor="#666666"
     borderopacity="1.0"
     inkscape:pageopacity="0.0"
     inkscape:pageshadow="2"
     inkscape:zoom="0.5698201"
     inkscape:cx="641.11491"
     inkscape:cy="464.33398"
     inkscape:document-units="px"
     inkscape:current-layer="layer1"
     showgrid="false"
     inkscape:window-width="1680"
     inkscape:window-height="1027"
     inkscape:window-x="-8"
     inkscape:window-y="-8"
     inkscape:window-maximized="1" />
  <metadata
     id="metadata7">
    <rdf:RDF>
      <cc:Work
         rdf:about="">
        <dc:format>image/svg+xml</dc:format>
        <dc:type
           rdf:resource="http://purl.org/dc/dcmitype/StillImage" />
        <dc:title></dc:title>
      </cc:Work>
    </rdf:RDF>
  </metadata>
  <g
     inkscape:label="Layer 1"
     inkscape:groupmode="layer"
     id="layer1"
     transform="translate(0,-308.2677)">
    <path
       inkscape:connector-curvature="0"
       id="path3844"
       d="m 509.51863,557.17168 c -66.90328,0 -121.13909,54.06162 -121.13909,120.75 0,66.68838 54.23581,120.75 121.13909,120.75 61.81597,0 112.80162,-46.15916 120.2005,-105.78099 l 194.16041,0 0,-29.93802 -194.16041,0 C 622.32025,603.33084 571.3346,557.17168 509.51863,557.17168 z"
       style="fill:#ffffff;fill-opacity:1;stroke:#000000;stroke-width:0;stroke-linecap:round;stroke-miterlimit:4;stroke-opacity:0;stroke-dasharray:none" />
    <rect
       style="fill:#ffffff;fill-opacity:1;stroke:#999999;stroke-width:0;stroke-linecap:round;stroke-miterlimit:0;stroke-opacity:1;stroke-dasharray:none"
       id="rect3773-7-4-8-5-1-1"
       width="30"
       height="215.44647"
       x="-695"
       y="431.86487"
       transform="scale(-1,1)"
       inkscape:transform-center-x="-92.4"
       inkscape:transform-center-y="362.74153" />
    <path
       style="font-size:medium;font-style:normal;font-variant:normal;font-weight:normal;font-stretch:normal;text-indent:0;text-align:start;text-decoration:none;line-height:normal;letter-spacing:normal;word-spacing:normal;text-transform:none;direction:ltr;block-progression:tb;writing-mode:lr-tb;text-anchor:start;baseline-shift:baseline;color:#000000;fill:#ffffff;fill-opacity:1;fill-rule:nonzero;stroke:none;stroke-width:29.09376144;marker:none;visibility:visible;display:inline;overflow:visible;enable-background:accumulate;font-family:Sans;-inkscape-font-specification:Sans"
       d="M 675 218.46875 C 593.26906 218.46875 525.59375 285.3898 525.59375 369.09375 C 525.59375 452.79771 593.26906 519.71875 675 519.71875 C 746.78359 519.71875 807.7292 468.09237 821.5 398.8125 L 790.84375 398.8125 C 777.61222 449.55138 731.30023 487.53125 675 487.53125 C 608.13544 487.53125 555.34375 433.9853 555.34375 369.09375 C 555.34375 304.20221 608.13544 250.65625 675 250.65625 C 731.10206 250.65625 777.2707 288.34987 790.6875 338.8125 L 821.375 338.8125 C 807.39845 269.80735 746.59951 218.46875 675 218.46875 z "
       id="path2985-1"
       transform="translate(0,308.2677)" />
    <path
       style="fill:#008080;fill-opacity:0.48148151;stroke:#000000;stroke-width:0;stroke-linecap:round;stroke-miterlimit:4;stroke-opacity:0;stroke-dasharray:none"
       d="m 509.51863,557.17168 c -66.90328,0 -121.13909,54.06162 -121.13909,120.75 0,66.68838 54.23581,120.75 121.13909,120.75 61.81597,0 112.80162,-46.15916 120.2005,-105.78099 l 194.16041,0 0,-29.93802 -194.16041,0 C 622.32025,603.33084 571.3346,557.17168 509.51863,557.17168 z"
       id="path2985-1-7"
       inkscape:connector-curvature="0" />
    <rect
       style="fill:#ffffff;fill-opacity:1;stroke:#999999;stroke-width:0;stroke-linecap:round;stroke-miterlimit:0;stroke-opacity:1;stroke-dasharray:none"
       id="rect3773-7"
       width="100"
       height="30"
       x="389.45901"
       y="662.36218" />
    <rect
       style="fill:#ffffff;fill-opacity:1;stroke:#ffffff;stroke-width:0;stroke-linecap:round;stroke-miterlimit:0;stroke-dasharray:none;stroke-opacity:1"
       id="rect3773-7-4-8"
       width="30"
       height="55"
       x="-335.87747"
       y="625.36218"
       transform="scale(-1,1)"
       inkscape:transform-center-x="-92.40003"
       inkscape:transform-center-y="92.602047" />
    <path
       style="font-size:medium;font-style:normal;font-variant:normal;font-weight:normal;font-stretch:normal;text-indent:0;text-align:start;text-decoration:none;line-height:normal;letter-spacing:normal;word-spacing:normal;text-transform:none;direction:ltr;block-progression:tb;writing-mode:lr-tb;text-anchor:start;baseline-shift:baseline;color:#000000;fill:#ffffff;fill-opacity:1;fill-rule:nonzero;stroke:none;stroke-width:28.28042221;marker:none;visibility:visible;display:inline;overflow:visible;enable-background:accumulate;font-family:Sans;-inkscape-font-specification:Sans"
       d="M 505.5 218.53125 C 433.43161 219.9779 370.82138 274.14938 361.6875 349.3125 C 351.60874 432.25111 410.68713 507.56161 491.84375 518.375 C 569.61278 528.73703 641.94779 476.45637 656.71875 399.09375 L 626.9375 399.09375 C 612.82399 456.35121 557.44876 495.51871 495.625 487.28125 C 428.85418 478.38463 382.5988 417.91847 390.46875 353.15625 C 398.3387 288.39404 457.57293 242.00964 524.34375 250.90625 C 574.84034 257.63447 613.62955 293.83417 626.125 339.09375 L 656.15625 339.09375 C 643.12789 277.64513 592.57694 228.40014 528.125 219.8125 C 520.51657 218.79874 512.95535 218.3816 505.5 218.53125 z "
       transform="translate(0,308.2677)"
       id="path2985" />
    <rect
       style="fill:#ffffff;fill-opacity:1;stroke:#ffffff;stroke-width:0;stroke-linecap:round;stroke-miterlimit:0;stroke-opacity:1;stroke-dasharray:none"
       id="rect3773-7-4-8-4"
       width="29.745743"
       height="44.9757"
       x="664.34912"
       y="306.44614"
       transform="matrix(8.4108339e-4,0.99999965,0.99998402,-0.00565345,0,0)"
       inkscape:transform-center-x="-75.646127"
       inkscape:transform-center-y="-92.045042" />
    <rect
       style="fill:#ffffff;fill-opacity:1;stroke:#00827f;stroke-width:0;stroke-linecap:round;stroke-miterlimit:0;stroke-dasharray:none;stroke-opacity:1"
       id="rect3773-7-4-1"
       width="28.999998"
       height="37"
       x="-881.30005"
       y="670.36218"
       transform="scale(-1,1)" />
    <path
       sodipodi:type="arc"
       style="fill:#000000;fill-opacity:0;stroke:#ffffff;stroke-width:19.98263236;stroke-linecap:butt;stroke-miterlimit:4;stroke-opacity:1;stroke-dasharray:none;marker-mid:none"
       id="path2985-4"
       sodipodi:cx="179.944"
       sodipodi:cy="368.57495"
       sodipodi:rx="131.54527"
       sodipodi:ry="121.61732"
       d="M 200.59744,488.68392 A 131.54527,121.61732 0 0 1 101.97241,466.52517 131.54527,121.61732 0 0 1 49.764671,386.05565"
       transform="matrix(1.433091,0.19094662,-0.188078,1.5477035,321.44471,72.557743)"
       sodipodi:start="1.4131377"
       sodipodi:end="2.9973578"
       sodipodi:open="true" />
    <path
       sodipodi:type="arc"
       style="fill:#000000;fill-opacity:0;stroke:#ffffff;stroke-width:19.98263168;stroke-linecap:butt;stroke-miterlimit:4;stroke-opacity:1;stroke-dasharray:none;marker-mid:none"
       id="path2985-4-8"
       sodipodi:cx="179.944"
       sodipodi:cy="368.57495"
       sodipodi:rx="131.54527"
       sodipodi:ry="121.61732"
       d="M 200.59744,488.68392 A 131.54527,121.61732 0 0 1 101.97241,466.52517 131.54527,121.61732 0 0 1 49.764671,386.05565"
       transform="matrix(-0.19094662,1.433091,-1.5477035,-0.188078,904.70173,678.7985)"
       sodipodi:start="1.4131377"
       sodipodi:end="2.9973578"
       sodipodi:open="true" />
    <path
       sodipodi:type="arc"
       style="fill:#ffffff;fill-opacity:0;stroke:#ffffff;stroke-width:19.98263168;stroke-linecap:butt;stroke-miterlimit:4;stroke-opacity:1;stroke-dasharray:none;marker-mid:none"
       id="path2985-4-8-8"
       sodipodi:cx="179.944"
       sodipodi:cy="368.57495"
       sodipodi:rx="131.54527"
       sodipodi:ry="121.61732"
       d="M 200.59744,488.68392 A 131.54527,121.61732 0 0 1 101.97241,466.52517 131.54527,121.61732 0 0 1 49.764671,386.05565"
       transform="matrix(-1.433091,-0.19094662,0.188078,-1.5477035,865.56369,1279.3643)"
       sodipodi:start="1.4131377"
       sodipodi:end="2.9973578"
       sodipodi:open="true" />
    <path
       inkscape:connector-curvature="0"
       style="color:#000000;font-style:normal;font-variant:normal;font-weight:normal;font-stretch:normal;font-size:medium;line-height:normal;font-family:Sans;-inkscape-font-specification:Sans;text-indent:0;text-align:start;text-decoration:none;text-decoration-line:none;letter-spacing:normal;word-spacing:normal;text-transform:none;writing-mode:lr-tb;direction:ltr;baseline-shift:baseline;text-anchor:start;display:inline;overflow:visible;visibility:visible;fill:#427f7f;fill-opacity:1;fill-rule:nonzero;stroke:none;stroke-width:29.09376144;marker:none;enable-background:accumulate"
       d="m 567.61674,572.82845 c -26.23903,27.06481 -42.53125,64.0776 -42.53125,105.13669 0,41.4253 16.58279,78.7329 43.23437,105.8594 9.16224,-5.1402 17.58954,-11.4291 25.07618,-18.6797 -23.79662,-21.7293 -38.56055,-52.8669 -38.56055,-87.1797 0,-34.02377 14.51797,-64.92389 37.96289,-86.62692 -7.53041,-7.19474 -15.98838,-13.43258 -25.18164,-18.50977 z"
       id="path2985-1-73" />
  </g>
</svg>
